<svg id="Layer_1" data-name="Layer 1" xmlns="http://www.w3.org/2000/svg" xmlns:xlink="http://www.w3.org/1999/xlink" viewBox="0 0 496.77 145.52"><defs><style>.cls-1{fill:url(#linear-gradient);}.cls-2{fill:#fff;}</style><linearGradient id="linear-gradient" x1="248.64" y1="37.53" x2="252.22" y2="123" gradientTransform="translate(0.05 -0.17) rotate(0.04)" gradientUnits="userSpaceOnUse"><stop offset="0" stop-color="#05f"/><stop offset="1" stop-color="#0849bb"/></linearGradient></defs><title>Artboard 1</title><path class="cls-1" d="M483.35,63.2a41.62,41.62,0,0,0-9.7-14.73,43.47,43.47,0,0,0-14.73-9.34,50.81,50.81,0,0,0-18.27-3.22,51.81,51.81,0,0,0-18.2,3.1,42.66,42.66,0,0,0-14.83,9.28c-.35.35-.7.71-1,1.07a21.39,21.39,0,0,0-6.36-7.24C395.53,38.7,389.62,37,382.65,37h-4.51l-8,8.17V35.78a24.71,24.71,0,0,0-1.71-9.62,18.4,18.4,0,0,0-5.93-7.71,19.6,19.6,0,0,0-8.6-3.62,46.66,46.66,0,0,0-14.73.05,55.06,55.06,0,0,0-5.47,1.1l-7.89,2.15,0,32.07a33,33,0,0,0-5.2-5.3c-7.42-6-17.58-9.08-30.21-9.09A66.17,66.17,0,0,0,272,38.25,49.18,49.18,0,0,0,257.28,45a26.82,26.82,0,0,0-7,7c-.32.47-.61,1-.89,1.45A32.11,32.11,0,0,0,242,44.85c-7.41-6-17.58-9.08-30.21-9.09a65.81,65.81,0,0,0-18.43,2.43A49.42,49.42,0,0,0,178.65,45a27.13,27.13,0,0,0-7,6.95c-.25.37-.48.75-.7,1.14a31,31,0,0,0-8.62-9.32,40.51,40.51,0,0,0-13.9-6.21c-7.85-1.94-16.9-2.35-27.24-1.06a51.71,51.71,0,0,0-11.69,2.77l-.38.15a24.53,24.53,0,0,0-8.09,5.31A35.93,35.93,0,0,0,90.21,29.5c-8.23-6.82-20-10.29-34.88-10.3A117.63,117.63,0,0,0,41.08,20a61.19,61.19,0,0,0-12.89,2.87,21.7,21.7,0,0,0-8.28,5,16.38,16.38,0,0,0-4.7,11.94l0,63.53a26.55,26.55,0,0,0,1.49,9.43,18,18,0,0,0,5.77,8,19.71,19.71,0,0,0,8.41,3.77,38.13,38.13,0,0,0,7.56.68,59.67,59.67,0,0,0,7.63-.48,46.31,46.31,0,0,0,6.11-1.1L60,121.57v-8.14c.6.89,1.21,1.75,1.84,2.56a25.76,25.76,0,0,0,5,5,22.87,22.87,0,0,0,7,3.55,28,28,0,0,0,8.32,1.17,24.24,24.24,0,0,0,14.15-4.42,22.2,22.2,0,0,0,4.83-4.6,31.65,31.65,0,0,0,3.8,3,41.57,41.57,0,0,0,13.27,5.53,67,67,0,0,0,15.33,1.64c12.7,0,22.58-2.2,30.2-6.77a30,30,0,0,0,6.56-5.3,18.28,18.28,0,0,0,5.51,6.86,19.71,19.71,0,0,0,8.59,3.61,50.67,50.67,0,0,0,14.62.06,39.38,39.38,0,0,0,5.85-1.16l7.62-2.28v-5.73a17.76,17.76,0,0,0,4.85,5.52,19.61,19.61,0,0,0,8.59,3.62,42.53,42.53,0,0,0,7.13.56,55.53,55.53,0,0,0,7.49-.5,39.38,39.38,0,0,0,5.85-1.16l7.62-2.28v-.56c.14.11.26.24.41.35a19.6,19.6,0,0,0,8.59,3.61,50.67,50.67,0,0,0,14.62.06,40.47,40.47,0,0,0,5.84-1.15l7.63-2.29v-5.72a18,18,0,0,0,4.85,5.52,19.71,19.71,0,0,0,8.59,3.61,42.53,42.53,0,0,0,7.13.56,55.53,55.53,0,0,0,7.49-.5,38.94,38.94,0,0,0,5.84-1.16l7.63-2.28v-.79c.23.19.44.4.68.58a19.48,19.48,0,0,0,8.59,3.61,46.64,46.64,0,0,0,14.73,0c2-.33,3.53-.58,4.57-.77l8.79-1.59V119.1a29.85,29.85,0,0,0,4.29,3.26,24.83,24.83,0,0,0,13.33,3.71c8.73,0,13.94-3.75,16.79-6.9a22.4,22.4,0,0,0,3.12-4.5,42.41,42.41,0,0,0,14.77,9.26,51.93,51.93,0,0,0,18.18,3.12,53.87,53.87,0,0,0,18-2.9,41.31,41.31,0,0,0,15-9.09,40.84,40.84,0,0,0,9.79-14.81,51.43,51.43,0,0,0,3.32-18.81A49.41,49.41,0,0,0,483.35,63.2ZM394.43,81.29l.15-.14v.29Z"/><path class="cls-2" d="M49.35,87.49v25.89a37.73,37.73,0,0,1-4.66.81,49.34,49.34,0,0,1-6.27.4,27.57,27.57,0,0,1-5.46-.48A9.14,9.14,0,0,1,29,112.43a7.48,7.48,0,0,1-2.36-3.38,16.19,16.19,0,0,1-.8-5.66l0-63.53a5.93,5.93,0,0,1,1.55-4.38A11.17,11.17,0,0,1,31.72,33a50.9,50.9,0,0,1,10.66-2.36,107.81,107.81,0,0,1,12.95-.73q18.6,0,28,7.84T92.8,58.92a23.64,23.64,0,0,1-4.32,14.3,31.05,31.05,0,0,1-10.26,9.16Q83.07,89,87.79,94.8a80.68,80.68,0,0,1,7.41,10.52,12.7,12.7,0,0,1-4.93,7.21,13.57,13.57,0,0,1-8,2.49,17.23,17.23,0,0,1-5.12-.67,12.64,12.64,0,0,1-3.78-1.89,15.71,15.71,0,0,1-3-3,39.62,39.62,0,0,1-2.56-3.78L56.5,87.49Zm8.51-17.93A11.8,11.8,0,0,0,66,66.93c2-1.75,3-4.33,3-7.75s-1.1-6-3.3-7.76-5.69-2.63-10.45-2.64a30.51,30.51,0,0,0-3.24.14c-.81.09-1.71.22-2.7.4V69.55Z"/><path class="cls-2" d="M132.6,46.41a55.3,55.3,0,0,1,13.28,1.49,29.61,29.61,0,0,1,10.25,4.53,20.3,20.3,0,0,1,6.53,7.69,24.59,24.59,0,0,1,2.29,11l0,30.21a8.37,8.37,0,0,1-2,5.73,19.23,19.23,0,0,1-4.66,3.84q-8.77,5.27-24.68,5.25a56.82,56.82,0,0,1-12.88-1.36,30.53,30.53,0,0,1-9.84-4,18.51,18.51,0,0,1-6.34-6.89,20.37,20.37,0,0,1-2.22-9.71q0-9.3,5.54-14.29T125,73.65l17.67-1.88v-.94a5.78,5.78,0,0,0-3.44-5.6c-2.29-1.13-5.6-1.69-9.91-1.7a45.76,45.76,0,0,0-10,1.08,53,53,0,0,0-8.77,2.69,9.38,9.38,0,0,1-3-3.71,11.76,11.76,0,0,1-1.21-5.2,8.67,8.67,0,0,1,1.69-5.59,13.15,13.15,0,0,1,5.2-3.57,39.93,39.93,0,0,1,9.24-2.15A80.06,80.06,0,0,1,132.6,46.41Zm1,53a29.76,29.76,0,0,0,5.06-.47,12.24,12.24,0,0,0,4.11-1.27V86.88l-9.71.8a15.1,15.1,0,0,0-6.21,1.61,4.36,4.36,0,0,0-2.43,4,5.36,5.36,0,0,0,2.09,4.38Q128.65,99.42,133.64,99.41Z"/><path class="cls-2" d="M220.51,72.5q0-4.19-2.35-6.14a9.78,9.78,0,0,0-6.41-2,21.39,21.39,0,0,0-5.33.67,13.47,13.47,0,0,0-4.52,2l0,46.8a31.08,31.08,0,0,1-4.25.81,43.29,43.29,0,0,1-6,.4,31.73,31.73,0,0,1-5.33-.41,9.06,9.06,0,0,1-4-1.62,7.81,7.81,0,0,1-2.5-3.31,14.37,14.37,0,0,1-.87-5.46l0-40.46a10.44,10.44,0,0,1,1.55-5.94,16.45,16.45,0,0,1,4.26-4.17,38.54,38.54,0,0,1,11.53-5.26,55.47,55.47,0,0,1,15.44-2q15.24,0,23.47,6.69t8.21,18.55l0,42.22a31.08,31.08,0,0,1-4.25.81,44.89,44.89,0,0,1-6,.4,32.82,32.82,0,0,1-5.33-.41,9.06,9.06,0,0,1-4-1.62,7.81,7.81,0,0,1-2.5-3.31,14.37,14.37,0,0,1-.87-5.46Z"/><path class="cls-2" d="M299.14,72.55q0-4.17-2.35-6.14a9.78,9.78,0,0,0-6.41-2,21.87,21.87,0,0,0-5.33.67,13.67,13.67,0,0,0-4.52,2l0,46.8a31.08,31.08,0,0,1-4.25.81,43.29,43.29,0,0,1-6,.4,31.73,31.73,0,0,1-5.33-.41,9,9,0,0,1-4-1.62,7.84,7.84,0,0,1-2.5-3.3,14.46,14.46,0,0,1-.87-5.47l0-40.46A10.4,10.4,0,0,1,259.16,58a16.43,16.43,0,0,1,4.25-4.18A38.47,38.47,0,0,1,275,48.53a54.73,54.73,0,0,1,15.44-2q15.24,0,23.47,6.69t8.21,18.55L322,114a31.08,31.08,0,0,1-4.25.81,43.29,43.29,0,0,1-6,.4,31.73,31.73,0,0,1-5.33-.41,9,9,0,0,1-4-1.62,7.81,7.81,0,0,1-2.5-3.31,14.37,14.37,0,0,1-.87-5.46Z"/><path class="cls-2" d="M400.27,102.29q-.67,6.34-3.71,9.71t-8.84,3.37a14.36,14.36,0,0,1-7.68-2.1,30,30,0,0,1-7.28-7.09L359.42,89.45l0,24.55c-1,.18-2.45.42-4.38.74a35.93,35.93,0,0,1-5.87.46,31.71,31.71,0,0,1-5.33-.4,9.11,9.11,0,0,1-4-1.63,7.83,7.83,0,0,1-2.49-3.3,14.41,14.41,0,0,1-.87-5.46l0-78.09c1-.27,2.45-.56,4.38-.88a37.08,37.08,0,0,1,5.87-.47,32.73,32.73,0,0,1,5.33.41,9.1,9.1,0,0,1,4,1.62,7.86,7.86,0,0,1,2.49,3.31,14.41,14.41,0,0,1,.87,5.46l0,35.61,23.21-23.72q7,0,11.26,3.11a9.35,9.35,0,0,1,4.25,7.82,10.08,10.08,0,0,1-.68,3.71,13.78,13.78,0,0,1-2.09,3.44,30.63,30.63,0,0,1-3.65,3.7c-1.48,1.31-3.22,2.81-5.19,4.52l-7.83,6.74Z"/><path class="cls-2" d="M476,81.44a40.58,40.58,0,0,1-2.57,14.9,30.29,30.29,0,0,1-7.22,11A30.77,30.77,0,0,1,455,114.06a42.77,42.77,0,0,1-14.44,2.28,40.83,40.83,0,0,1-14.43-2.43A31.7,31.7,0,0,1,415,107a31,31,0,0,1-7.21-11,39.52,39.52,0,0,1-2.55-14.57A38.86,38.86,0,0,1,407.85,67a31,31,0,0,1,7.23-11A31.76,31.76,0,0,1,426.21,49a40.75,40.75,0,0,1,14.43-2.41,39.94,39.94,0,0,1,14.43,2.5,32.73,32.73,0,0,1,11.12,7,31.09,31.09,0,0,1,7.21,11A38.5,38.5,0,0,1,476,81.44Zm-47.2,0q0,8.22,3.16,12.61a10.3,10.3,0,0,0,8.83,4.39,9.88,9.88,0,0,0,8.7-4.45q3-4.44,3-12.54t-3.09-12.48a11,11,0,0,0-17.53,0Q428.76,73.31,428.75,81.41Z"/></svg>